<svg width="48" height="48" viewBox="0 0 48 48" fill="none" xmlns="http://www.w3.org/2000/svg">
<path fill-rule="evenodd" clip-rule="evenodd" d="M48 24C48 37.248 37.248 48 24 48C10.752 48 0 37.248 0 24C0 10.752 10.752 0 24 0C37.248 0 48 10.752 48 24ZM16.8 29.4C18.456 29.4 19.8 28.056 19.8 26.4C19.8 24.744 18.456 23.4 16.8 23.4C15.144 23.4 13.8 24.744 13.8 26.4C13.8 28.056 15.144 29.4 16.8 29.4ZM28.2 26.4C28.2 24.744 29.544 23.4 31.2 23.4C32.856 23.4 34.2 24.744 34.2 26.4C34.2 28.056 32.856 29.4 31.2 29.4C29.544 29.4 28.2 28.056 28.2 26.4ZM37.2 14.4C30.24 14.4 24.144 10.656 20.784 5.088C21.816 4.92 22.896 4.8 24 4.8C30.96 4.8 37.056 8.544 40.416 14.112C39.384 14.28 38.304 14.4 37.2 14.4ZM5.80799 17.928C9.91199 15.6 13.08 11.808 14.592 7.27198C10.488 9.59998 7.31999 13.392 5.80799 17.928ZM42.408 18.624C42.912 20.328 43.2 22.128 43.2 24C43.2 34.584 34.584 43.2 24 43.2C13.416 43.2 4.8 34.584 4.8 24C4.8 23.9591 4.80279 23.9181 4.80552 23.8782C4.81079 23.8009 4.81581 23.7273 4.8 23.664C11.04 21.312 16.056 16.488 18.576 10.344C22.992 15.744 29.688 19.2 37.2 19.2C39 19.2 40.728 18.984 42.408 18.624Z" fill="#004E60"/>
</svg>
