<svg width="76" height="76" viewBox="0 0 76 76" fill="none" xmlns="http://www.w3.org/2000/svg">
<path fill-rule="evenodd" clip-rule="evenodd" d="M75.5 38C75.5 58.7 58.7 75.5 38 75.5C17.3 75.5 0.5 58.7 0.5 38C0.5 17.3 17.3 0.5 38 0.5C58.7 0.5 75.5 17.3 75.5 38ZM26.75 46.4375C29.3375 46.4375 31.4375 44.3375 31.4375 41.75C31.4375 39.1625 29.3375 37.0625 26.75 37.0625C24.1625 37.0625 22.0625 39.1625 22.0625 41.75C22.0625 44.3375 24.1625 46.4375 26.75 46.4375ZM44.5625 41.75C44.5625 39.1625 46.6625 37.0625 49.25 37.0625C51.8375 37.0625 53.9375 39.1625 53.9375 41.75C53.9375 44.3375 51.8375 46.4375 49.25 46.4375C46.6625 46.4375 44.5625 44.3375 44.5625 41.75ZM58.625 23C47.75 23 38.225 17.15 32.975 8.45C34.5875 8.1875 36.275 8 38 8C48.875 8 58.4 13.85 63.65 22.55C62.0375 22.8125 60.35 23 58.625 23ZM9.575 28.5125C15.9875 24.875 20.9375 18.95 23.3 11.8625C16.8875 15.5 11.9375 21.425 9.575 28.5125ZM66.7625 29.6C67.55 32.2625 68 35.075 68 38C68 54.5375 54.5375 68 38 68C21.4625 68 8 54.5375 8 38C8 37.936 8.00436 37.8721 8.00862 37.8096C8.01686 37.689 8.02471 37.5738 8 37.475C17.75 33.8 25.5875 26.2625 29.525 16.6625C36.425 25.1 46.8875 30.5 58.625 30.5C61.4375 30.5 64.1375 30.1625 66.7625 29.6Z" fill="#C4C4C4"/>
</svg>
