<svg width="34" height="36" viewBox="0 0 34 36" fill="none" xmlns="http://www.w3.org/2000/svg">
<path d="M13.5238 28.7456L22.4924 31.0844L26.9345 23.2654L13.5238 28.7456Z" fill="#FFA26B"/>
<path d="M27.8826 11.6039C30.5749 18.0125 27.6069 25.4092 21.2535 28.1249C14.9001 30.8406 7.56714 27.8469 4.87484 21.4383C2.18254 15.0297 5.15045 7.63293 11.5039 4.91723C17.8573 2.20152 25.1903 5.19524 27.8826 11.6039Z" fill="#FFA26B"/>
<path d="M23.1501 16.5405C23.1501 20.3021 20.1271 23.3514 16.398 23.3514C12.6689 23.3514 9.64588 20.3021 9.64588 16.5405C9.64588 12.779 12.6689 9.72974 16.398 9.72974C20.1271 9.72974 23.1501 12.779 23.1501 16.5405Z" fill="#219BB6"/>
</svg>
