<svg width="159" height="167" viewBox="0 0 159 167" fill="none" xmlns="http://www.w3.org/2000/svg">
<path d="M61.3915 139.549L108.355 151.564L131.708 111.039L61.3915 139.549Z" fill="white"/>
<path d="M136.796 50.6575C150.835 83.8068 135.209 122.13 101.895 136.256C68.5808 150.381 30.1935 134.959 16.1546 101.81C2.11557 68.6608 17.7412 30.3371 51.0553 16.2117C84.3695 2.08637 122.757 17.5083 136.796 50.6575Z" fill="white"/>
<path d="M63.2435 133.348L105.185 144.197L125.958 107.926L63.2435 133.348Z" fill="#219BB6"/>
<path d="M130.392 53.829C142.982 83.5579 129.103 117.871 99.3915 130.468C69.68 143.066 35.3875 129.179 22.797 99.4498C10.2066 69.7209 24.0859 35.4082 53.7975 22.8104C83.509 10.2125 117.801 24.1 130.392 53.829Z" fill="#219BB6"/>
<ellipse cx="76.9429" cy="76.9079" rx="32.9755" ry="32.9605" fill="white"/>
</svg>
