<svg width="130" height="34" viewBox="0 0 130 34" fill="none" xmlns="http://www.w3.org/2000/svg">
<path d="M27.1202 30.335L37.9147 33.1286L43.2611 23.7893L27.1202 30.335Z" fill="#FFA26B"/>
<path d="M44.4021 9.86019C47.6425 17.515 44.0704 26.3499 36.4236 29.5937C28.7768 32.8375 19.951 29.2616 16.7106 21.6069C13.4702 13.9521 17.0423 5.11712 24.6891 1.87336C32.3359 -1.37039 41.1617 2.20543 44.4021 9.86019Z" fill="#FFA26B"/>
<path d="M13.9324 6.46126C14.4253 6.61894 14.8275 6.89489 15.1388 7.28911C15.4761 7.65705 15.6447 8.26151 15.6447 9.10251C15.6447 9.9435 15.3982 10.8633 14.9053 11.862C14.4123 12.8607 13.6989 13.36 12.7648 13.36C12.2978 13.36 11.8438 13.2549 11.4027 13.0447C10.9876 12.8344 10.4298 12.7293 9.7293 12.7293C9.02879 12.7293 8.3672 12.979 7.74453 13.4783C7.14779 13.9777 6.84943 14.5821 6.84943 15.2917V23.5703C6.84943 24.1748 6.82348 24.6347 6.7716 24.9501C6.74565 25.2392 6.6289 25.5808 6.42134 25.975C6.03217 26.6583 5.02032 27 3.3858 27C2.14045 27 1.24535 26.7766 0.70051 26.3298C0.285393 25.9619 0.0518896 25.3969 0 24.6347C0 24.3719 0 23.9908 0 23.4915V9.65441C0 9.04994 0.0129724 8.60317 0.0389171 8.31408C0.0908068 7.9987 0.207558 7.65705 0.389172 7.28911C0.752399 6.57952 1.76425 6.22473 3.42471 6.22473C4.9814 6.22473 5.95433 6.52696 6.34351 7.13143C6.6289 7.55192 6.7716 7.98556 6.7716 8.43234C6.90132 8.24837 7.08293 8.02498 7.31644 7.76217C7.57588 7.49936 8.10775 7.14457 8.91204 6.69779C9.71633 6.25101 10.4168 6.02762 11.0136 6.02762C11.6362 6.02762 12.1551 6.06704 12.5703 6.14589C12.9854 6.19845 13.4394 6.30357 13.9324 6.46126Z" fill="white"/>
<path d="M55.5033 26.9212C52.8829 26.9212 50.7035 25.9225 48.9652 23.9251C47.2528 21.9015 46.3967 19.4441 46.3967 16.5532V9.65441C46.3967 9.02366 46.4096 8.56375 46.4356 8.27465C46.4875 7.98556 46.6042 7.64391 46.7858 7.24969C47.1491 6.5401 48.1609 6.18531 49.8214 6.18531C51.6375 6.18531 52.7012 6.68465 53.0126 7.68333C53.1683 8.10383 53.2461 8.77399 53.2461 9.69383V16.5926C53.2461 17.6702 53.5445 18.5112 54.1412 19.1156C54.7639 19.7201 55.5811 20.0224 56.593 20.0224C57.6308 20.0224 58.461 19.707 59.0837 19.0762C59.7323 18.4455 60.0566 17.6176 60.0566 16.5926V9.61499C60.0566 9.01053 60.0696 8.56375 60.0955 8.27465C60.1474 7.95928 60.2771 7.60449 60.4847 7.21027C60.822 6.52696 61.8208 6.18531 63.4813 6.18531C65.1158 6.18531 66.1147 6.5401 66.4779 7.24969C66.6596 7.64391 66.7633 7.9987 66.7893 8.31408C66.8412 8.60317 66.8671 9.04994 66.8671 9.65441V23.6097C66.8671 24.1879 66.8412 24.6347 66.7893 24.9501C66.7633 25.2392 66.6466 25.5677 66.439 25.9356C66.0498 26.6189 65.051 26.9606 63.4424 26.9606C61.8598 26.9606 60.8868 26.6452 60.5236 26.0145C60.2642 25.5677 60.1344 25.0289 60.1344 24.3982C60.0307 24.5821 59.7972 24.845 59.4339 25.1866C59.0707 25.5283 58.7204 25.8174 58.3832 26.0539C57.501 26.6321 56.5411 26.9212 55.5033 26.9212Z" fill="white"/>
<path d="M79.4547 6.22473C82.0492 6.22473 84.2026 7.23655 85.915 9.26019C87.6533 11.2576 88.5224 13.7017 88.5224 16.5926V23.5309C88.5224 24.1354 88.4965 24.5953 88.4446 24.9107C88.4186 25.1997 88.3148 25.5283 88.1332 25.8962C87.77 26.6058 86.7582 26.9606 85.0977 26.9606C83.2556 26.9606 82.1919 26.4744 81.9065 25.502C81.7508 25.0552 81.673 24.385 81.673 23.4915V16.5532C81.673 15.4757 81.3616 14.6347 80.739 14.0302C80.1422 13.4257 79.325 13.1235 78.2872 13.1235C77.2753 13.1235 76.4451 13.4389 75.7965 14.0696C75.1738 14.7004 74.8625 15.5282 74.8625 16.5532V23.5309C74.8625 24.1354 74.8365 24.5953 74.7846 24.9107C74.7587 25.1997 74.6419 25.5283 74.4344 25.8962C74.0971 26.6058 73.0982 26.9606 71.4378 26.9606C69.8032 26.9606 68.8044 26.6058 68.4411 25.8962C68.2595 25.502 68.1428 25.1603 68.0909 24.8712C68.0649 24.5559 68.052 24.0959 68.052 23.4915V9.53615C68.052 8.95796 68.0649 8.52432 68.0909 8.23523C68.1428 7.91986 68.2725 7.57821 68.48 7.21027C68.8433 6.55324 69.8422 6.22473 71.4767 6.22473C73.0593 6.22473 74.0322 6.52696 74.3955 7.13143C74.6549 7.5782 74.7846 8.11697 74.7846 8.74771C74.8884 8.56375 75.1219 8.30093 75.4851 7.95928C75.8484 7.61763 76.1986 7.34167 76.5359 7.13143C77.418 6.52696 78.391 6.22473 79.4547 6.22473Z" fill="white"/>
<path d="M103.579 1.06438C103.786 0.670168 104.136 0.394217 104.629 0.236531C105.122 0.0788432 105.771 0 106.575 0C107.406 0 108.067 0.0788432 108.56 0.236531C109.053 0.394217 109.39 0.670168 109.572 1.06438C109.779 1.4586 109.896 1.8134 109.922 2.12877C109.974 2.41786 110 2.86464 110 3.4691L109.866 23.5309C109.866 24.1354 109.84 24.5953 109.789 24.9107C109.763 25.1997 109.646 25.5283 109.438 25.8962C109.049 26.6058 107.946 26.9606 106.13 26.9606C104.34 26.9606 103.341 26.3167 103.134 25.0289C102.044 26.2904 100.526 26.9212 98.5804 26.9212C96.2453 26.9212 94.1179 25.8962 92.198 23.8463C90.278 21.7701 89.3181 19.3653 89.3181 16.632C89.3181 13.8725 90.278 11.4547 92.198 9.37846C94.1438 7.30225 96.2713 6.26415 98.5804 6.26415C100.5 6.26415 101.992 6.92118 103.056 8.23523L103.189 3.42968C103.189 2.82522 103.202 2.37844 103.228 2.08935C103.28 1.77397 103.397 1.43232 103.579 1.06438ZM97.1404 18.9974C97.815 19.707 98.6323 20.0618 99.5922 20.0618C100.552 20.0618 101.344 19.707 101.966 18.9974C102.615 18.2878 102.939 17.5125 102.939 16.6715C102.939 15.8042 102.628 15.0026 102.005 14.2667C101.408 13.5309 100.591 13.1629 99.5533 13.1629C98.5155 13.1629 97.6853 13.5309 97.0626 14.2667C96.4399 14.9763 96.1286 15.7648 96.1286 16.632C96.1286 17.4993 96.4659 18.2878 97.1404 18.9974Z" fill="white"/>
<path d="M112.896 26.6982C112.36 26.4673 112.038 26.0169 111.93 25.3469C111.822 24.6769 112.145 23.5807 112.898 22.0583C113.11 21.5749 113.523 21.2837 114.137 21.1847C114.777 21.0816 115.686 21.2656 116.865 21.7366C118.04 22.1818 119.062 22.3344 119.933 22.1942C121.495 21.9426 122.226 21.5076 122.126 20.8892C122.048 20.3996 121.132 20.1769 119.379 20.2213C117.729 20.2492 116.032 19.9014 114.287 19.1778C113.47 18.8336 112.74 18.211 112.096 17.3102C111.448 16.3836 111.014 15.2374 110.795 13.8717C110.14 9.80027 112.591 7.31716 118.146 6.42233C119.964 6.12955 121.903 6.26659 123.964 6.83344C124.927 7.1014 125.458 7.54461 125.557 8.16305C125.656 8.78148 125.497 9.58701 125.079 10.5796C124.66 11.5722 124.157 12.116 123.568 12.2108C123.261 12.2603 122.654 12.1598 121.747 11.9094C120.865 11.6548 119.938 11.6059 118.965 11.7626C117.455 12.0059 116.745 12.411 116.836 12.9779C116.961 13.7509 117.912 14.1132 119.69 14.0647C121.409 13.9729 123.126 14.1986 124.842 14.7417C125.642 14.9829 126.358 15.5153 126.989 16.3388C127.642 17.1325 128.076 18.1993 128.292 19.5393C128.507 20.8792 128.435 22.0672 128.077 23.1031C127.739 24.1091 127.16 24.9161 126.338 25.5243C124.828 26.587 122.831 27.3184 120.348 27.7184C117.89 28.1143 115.406 27.7742 112.896 26.6982Z" fill="white"/>
<ellipse cx="30.5" cy="16" rx="8.5" ry="9" fill="#0E849E"/>
</svg>
