<svg width="751" height="182" viewBox="0 0 751 182" fill="none" xmlns="http://www.w3.org/2000/svg">
<path d="M80.8525 33.4608C83.7132 34.363 86.047 35.9418 87.8537 38.1973C89.8111 40.3024 90.7897 43.7607 90.7897 48.5723C90.7897 53.384 89.3594 58.6467 86.4987 64.3605C83.638 70.0743 79.4975 72.9312 74.0772 72.9312C71.367 72.9312 68.7322 72.3297 66.1726 71.1268C63.7636 69.9239 60.5265 69.3225 56.4613 69.3225C52.3961 69.3225 48.5567 70.7509 44.9432 73.6078C41.4802 76.4647 39.7487 79.9231 39.7487 83.9829V131.348C39.7487 134.806 39.5982 137.437 39.297 139.242C39.1465 140.896 38.4689 142.85 37.2644 145.106C35.006 149.015 29.134 150.97 19.6485 150.97C12.4215 150.97 7.22704 149.692 4.06521 147.136C1.6562 145.031 0.301127 141.798 0 137.437C0 135.934 0 133.753 0 130.897V51.73C0 48.2716 0.0752815 45.7154 0.225845 44.0614C0.526971 42.2571 1.20451 40.3024 2.25845 38.1973C4.36634 34.1375 10.2383 32.1076 19.8744 32.1076C28.9082 32.1076 34.5543 33.8367 36.8127 37.2951C38.4689 39.7009 39.297 42.1819 39.297 44.7381C40.0499 43.6855 41.1038 42.4074 42.4589 40.9038C43.9645 39.4002 47.0511 37.3703 51.7185 34.8141C56.386 32.2579 60.4512 30.9798 63.9142 30.9798C67.5277 30.9798 70.5389 31.2054 72.948 31.6565C75.357 31.9572 77.9918 32.5586 80.8525 33.4608Z" fill="#224E57"/>
<path d="M333.063 150.519C317.856 150.519 305.209 144.805 295.121 133.378C285.184 121.8 280.215 107.74 280.215 91.2004V51.73C280.215 48.1212 280.291 45.4899 280.441 43.8359C280.742 42.1819 281.42 40.2272 282.474 37.9717C284.582 33.9119 290.454 31.882 300.09 31.882C310.629 31.882 316.802 34.7389 318.609 40.4527C319.512 42.8585 319.964 46.6928 319.964 51.9555V91.4259C319.964 97.5908 321.696 102.403 325.159 105.861C328.772 109.319 333.515 111.049 339.387 111.049C345.409 111.049 350.227 109.244 353.841 105.635C357.605 102.027 359.487 97.2901 359.487 91.4259V51.5044C359.487 48.0461 359.562 45.4899 359.713 43.8359C360.014 42.0315 360.767 40.0016 361.971 37.7462C363.929 33.8367 369.725 31.882 379.361 31.882C388.847 31.882 394.644 33.9119 396.751 37.9717C397.805 40.2272 398.408 42.2571 398.558 44.0614C398.859 45.7154 399.01 48.2716 399.01 51.73V131.573C399.01 134.881 398.859 137.437 398.558 139.242C398.408 140.896 397.73 142.775 396.526 144.88C394.267 148.79 388.471 150.745 379.136 150.745C369.951 150.745 364.305 148.94 362.197 145.331C360.692 142.775 359.939 139.693 359.939 136.084C359.336 137.137 357.981 138.64 355.874 140.595C353.766 142.55 351.733 144.204 349.776 145.557C344.657 148.865 339.086 150.519 333.063 150.519Z" fill="#224E57"/>
<path d="M472.058 32.1076C487.115 32.1076 499.612 37.8965 509.549 49.4745C519.636 60.9021 524.68 74.886 524.68 91.4259V131.122C524.68 134.58 524.53 137.212 524.229 139.016C524.078 140.67 523.476 142.55 522.422 144.655C520.314 148.715 514.442 150.745 504.806 150.745C494.116 150.745 487.943 147.963 486.287 142.399C485.383 139.843 484.932 136.009 484.932 130.897V91.2004C484.932 85.0355 483.125 80.2238 479.511 76.7654C476.048 73.3071 471.306 71.5779 465.283 71.5779C459.411 71.5779 454.593 73.3823 450.829 76.991C447.215 80.5997 445.409 85.3362 445.409 91.2004V131.122C445.409 134.58 445.258 137.212 444.957 139.016C444.806 140.67 444.129 142.55 442.924 144.655C440.967 148.715 435.17 150.745 425.534 150.745C416.049 150.745 410.252 148.715 408.144 144.655C407.09 142.399 406.413 140.445 406.112 138.791C405.961 136.986 405.886 134.355 405.886 130.897V51.0533C405.886 47.7453 405.961 45.2643 406.112 43.6103C406.413 41.806 407.166 39.8513 408.37 37.7462C410.478 33.9871 416.275 32.1076 425.76 32.1076C434.945 32.1076 440.591 33.8367 442.699 37.2951C444.204 39.8513 444.957 42.9337 444.957 46.5424C445.559 45.4899 446.914 43.9863 449.022 42.0315C451.13 40.0768 453.163 38.498 455.12 37.2951C460.239 33.8367 465.885 32.1076 472.058 32.1076Z" fill="#224E57"/>
<path d="M611.731 6.08971C612.936 3.83426 614.968 2.25545 617.829 1.35328C620.69 0.451089 624.454 0 629.121 0C633.939 0 637.779 0.451089 640.639 1.35328C643.5 2.25545 645.457 3.83426 646.511 6.08971C647.716 8.34517 648.393 10.3751 648.544 12.1794C648.845 13.8334 648.996 16.3896 648.996 19.848L648.544 131.122C648.544 134.58 648.393 137.212 648.092 139.016C647.942 140.67 647.264 142.55 646.06 144.655C643.801 148.715 637.402 150.745 626.863 150.745C616.474 150.745 610.677 147.061 609.473 139.693C603.149 146.91 594.341 150.519 583.049 150.519C569.498 150.519 557.152 144.655 546.01 132.926C534.869 121.048 529.298 107.289 529.298 91.6515C529.298 75.8633 534.869 62.0298 546.01 50.1511C557.303 38.2724 569.649 32.3331 583.049 32.3331C594.191 32.3331 602.848 36.0922 609.021 43.6103L609.473 19.6224C609.473 16.1641 609.548 13.6079 609.699 11.9539C610 10.1495 610.677 8.1948 611.731 6.08971ZM574.693 105.184C578.607 109.244 583.35 111.274 588.921 111.274C594.492 111.274 599.084 109.244 602.698 105.184C606.462 101.125 608.344 96.6887 608.344 91.877C608.344 86.9151 606.537 82.3289 602.923 78.1187C599.46 73.9085 594.718 71.8034 588.695 71.8034C582.673 71.8034 577.854 73.9085 574.241 78.1187C570.627 82.1785 568.821 86.6895 568.821 91.6515C568.821 96.6134 570.778 101.125 574.693 105.184Z" fill="#224E57"/>
<path d="M656.145 140.369C653.284 138.565 651.854 135.708 651.854 131.799C651.854 127.889 654.715 121.95 660.436 113.981C662.092 111.424 664.727 110.146 668.341 110.146C672.105 110.146 677.149 112.026 683.472 115.785C689.796 119.394 695.517 121.198 700.637 121.198C709.821 121.198 714.413 119.394 714.413 115.785C714.413 112.928 709.369 110.823 699.281 109.47C689.796 108.116 680.386 104.583 671.051 98.869C666.685 96.1624 663.071 91.9522 660.21 86.2384C657.35 80.3742 655.919 73.4574 655.919 65.4882C655.919 41.7308 672.255 29.8521 704.928 29.8521C715.618 29.8521 726.609 32.4083 737.901 37.5206C743.171 39.9264 745.806 42.9337 745.806 46.5424C745.806 50.1511 744.149 54.5869 740.837 59.8496C737.525 65.1123 734.137 67.7436 730.674 67.7436C728.867 67.7436 725.48 66.6159 720.511 64.3605C715.693 62.105 710.423 60.9773 704.702 60.9773C695.819 60.9773 691.377 62.6313 691.377 65.9393C691.377 70.4502 696.496 73.3823 706.734 74.7355C716.672 75.7881 726.308 78.645 735.643 83.3063C740.009 85.4114 743.622 89.0953 746.483 94.358C749.494 99.4704 751 105.936 751 113.755C751 121.574 749.494 128.265 746.483 133.829C743.622 139.242 739.557 143.302 734.287 146.008C724.651 150.669 712.531 153 697.926 153C683.472 153 669.545 148.79 656.145 140.369Z" fill="#224E57"/>
<path d="M91 91.6642C91 65.0949 100.265 43.1752 118.796 25.9051C137.327 8.63503 158.505 0 182.331 0C206.156 0 227.224 8.63503 245.535 25.9051C263.845 42.9537 273 64.7627 273 91.3321C273 109.709 268.257 126.094 258.771 140.485C249.285 154.656 237.703 165.173 224.025 172.036C210.568 178.679 196.56 182 182 182C167.44 182 153.321 178.457 139.644 171.372C125.966 164.066 114.384 153.438 104.898 139.489C95.6327 125.319 91 109.377 91 91.6642Z" fill="#219BB6"/>
</svg>
